<?xml version="1.0" ?><!DOCTYPE svg  PUBLIC '-//W3C//DTD SVG 1.0//EN'  'http://www.w3.org/TR/2001/REC-SVG-20010904/DTD/svg10.dtd'><svg id="Layer_1" style="enable-background:new 0 0 100 100;" version="1.0" viewBox="0 0 100 100" xml:space="preserve" xmlns="http://www.w3.org/2000/svg" xmlns:xlink="http://www.w3.org/1999/xlink"><g><g><path d="M68.33,91.43c-0.89,0-1.69-0.18-2.41-0.54c-0.72-0.36-1.34-0.95-1.86-1.78c-0.51-0.83-0.92-1.91-1.2-3.26     c-0.29-1.34-0.44-3-0.44-4.97c0-2.04,0.18-3.78,0.54-5.22c0.36-1.44,0.86-2.61,1.5-3.51c0.63-0.9,1.38-1.55,2.25-1.96     c0.86-0.41,1.81-0.61,2.84-0.61c1.08,0,2.11,0.19,3.08,0.56c0.97,0.37,1.89,1.02,2.75,1.96v15.84c-0.48,0.58-0.96,1.08-1.45,1.51     c-0.5,0.43-1.02,0.79-1.57,1.08c-0.55,0.29-1.16,0.51-1.82,0.67C69.88,91.35,69.14,91.43,68.33,91.43z"/></g><g><path d="M100,10v80c0,5.52-4.48,10-10,10H64.44c1.27,0,2.45-0.13,3.55-0.38c1.09-0.25,2.11-0.61,3.06-1.08     c0.94-0.47,1.83-1.02,2.64-1.67c0.82-0.65,1.6-1.37,2.34-2.16l0.87,2.84c0.19,0.63,0.52,1.09,0.99,1.41     c0.46,0.31,1.05,0.46,1.74,0.46h6.91V45.53H75.38v18.9c-1.08-0.91-2.28-1.65-3.61-2.21c-1.34-0.57-2.96-0.85-4.88-0.85     c-2.38,0-4.55,0.49-6.52,1.48c-1.97,0.98-3.65,2.34-5.06,4.08c-1.4,1.74-2.49,3.81-3.25,6.2c-0.77,2.38-1.16,4.97-1.16,7.75     c0,3.03,0.35,5.72,1.03,8.09c0.68,2.36,1.63,4.36,2.83,5.99s2.62,2.88,4.28,3.74c1.66,0.87,3.46,1.3,5.4,1.3H10     c-1.17,0-2.3-0.2-3.35-0.58h4.73c0.72,0,1.32-0.19,1.8-0.59c0.48-0.4,0.86-0.85,1.15-1.35l9.79-16.99     c0.24-0.39,0.46-0.84,0.65-1.37l10.51,18.36c0.29,0.53,0.68,0.98,1.17,1.37c0.49,0.38,1.13,0.57,1.93,0.57h12.16l-16.81-27.5     l16.45-24.95H38.52c-1.03,0-1.85,0.51-2.45,1.51l-9.14,15.7c-0.19,0.31-0.37,0.61-0.52,0.9c-0.16,0.29-0.3,0.59-0.42,0.9     L15.55,48.3c-0.29-0.48-0.62-0.82-0.99-1.02c-0.37-0.21-0.95-0.31-1.74-0.31H0.65l16.23,25.49L2.08,96.1C0.78,94.41,0,92.3,0,90     V10C0,4.48,4.48,0,10,0h80C95.52,0,100,4.48,100,10z"/></g></g></svg>